<svg xmlns="http://www.w3.org/2000/svg" viewBox="0 0 1122 1122"><defs><style>.cls-1{fill:#27b263;}.cls-2{font-size:118.29px;font-family:Monda-Regular, Monda;}.cls-2,.cls-5{fill:#002a4e;stroke:#fff;stroke-miterlimit:10;}.cls-3{letter-spacing:-0.02em;}.cls-4{fill:none;}</style></defs><g id="Icon"><path class="cls-1" d="M559.56,340.88l-.11,0v0Z"/><path class="cls-1" d="M614.2,341a6.35,6.35,0,0,1-.76-.13h.76Z"/><path class="cls-1" d="M559.45,340.88h.11l-.11,0Z"/><path class="cls-1" d="M614.2,340.88V341a6.35,6.35,0,0,1-.76-.13Z"/><path class="cls-1" d="M637.65,297.42l17.4-59.4a4.7,4.7,0,0,0-4.51-6H635.4a4.69,4.69,0,0,0-4.5,3.38l-8.61,29.36H608.38l3.73-27.41a4.7,4.7,0,0,0-4.66-5.33H564a4.7,4.7,0,0,0-4.66,5.33l3.73,27.41H549.15l-8.6-29.36A4.72,4.72,0,0,0,536,232H520.9a4.7,4.7,0,0,0-4.51,6l17.4,59.4a11.75,11.75,0,0,0,11.27,8.44h.79a10.36,10.36,0,0,0-.09,20.72h9.9a7.43,7.43,0,0,0,2.28,14.49,6.85,6.85,0,0,0,1.51-.17v0h.11l-.11,0a336.31,336.31,0,0,1-28.71,136.71h-5.42a4,4,0,0,0-3.49,6l8.82,10.66H642.34l8.83-10.66a4,4,0,0,0-3.49-6h-5.42c-18-40.89-28-88.66-28.06-136.6a6.35,6.35,0,0,1-.76-.13h.76V341a6.07,6.07,0,0,0,.85.06,7.18,7.18,0,0,0,1.62-.19,7.47,7.47,0,0,0,4.15-2.56,7.42,7.42,0,0,0-3.49-11.74h8.26A10.39,10.39,0,0,0,636,316.22c0-5-3.17-10.36-10-10.36h.41A11.75,11.75,0,0,0,637.65,297.42Zm-19,130a34.93,34.93,0,1,1-7.46-11.07A34.59,34.59,0,0,1,618.6,427.42Z"/><path class="cls-1" d="M689.12,568.54v14.83H483.87V568.54a14.83,14.83,0,0,1,14.83-14.83,14.83,14.83,0,0,1-14.83-14.84c0-10.82,9.48-15.11,17.52-19.87a113.86,113.86,0,0,0,10.72-7.19,112.67,112.67,0,0,0,9.8-8.34q2.4-2.27,4.64-4.68c.59-.62,4-4.43,4-4.43h112s3.37,3.81,4,4.43q2.25,2.41,4.64,4.68a112.8,112.8,0,0,0,9.81,8.34A115,115,0,0,0,671.6,519c8,4.76,17.52,9,17.52,19.87a14.83,14.83,0,0,1-14.83,14.84A14.83,14.83,0,0,1,689.12,568.54Z"/><path class="cls-1" d="M618.6,427.42A35,35,0,1,0,621.33,441,34.59,34.59,0,0,0,618.6,427.42Zm-5.1,24.93a29.27,29.27,0,1,1-47.66-32.08,29.27,29.27,0,0,1,47.66,32.08Z"/><path class="cls-1" d="M586.53,414.28A26.68,26.68,0,1,0,613.22,441,26.68,26.68,0,0,0,586.53,414.28ZM598,447.68a9.62,9.62,0,0,1-1.48,5.41,9.51,9.51,0,0,1-4.06,3.41,13.54,13.54,0,0,1-4.84,1.15v4h-2.1v-4a13.64,13.64,0,0,1-4.78-1.08,9.41,9.41,0,0,1-4-3.22,9.75,9.75,0,0,1-1.68-5.07l0-.36h5.62l.05.26a4.94,4.94,0,0,0,.89,2.16,4.38,4.38,0,0,0,1.94,1.47,6.62,6.62,0,0,0,2,.46v-8.54l-1.58-.37a12.38,12.38,0,0,1-6.34-3.31,8.53,8.53,0,0,1-2.13-6.07v0a9,9,0,0,1,5.27-8.51,12.28,12.28,0,0,1,4.78-1.18v-4h2.1v4a12.65,12.65,0,0,1,4.47,1.07,9,9,0,0,1,3.84,3.21,10.18,10.18,0,0,1,1.63,5l0,.43H592l0-.22a4.87,4.87,0,0,0-.88-2.31,4.55,4.55,0,0,0-1.87-1.43,6.77,6.77,0,0,0-1.58-.41v8.27l1.65.39a13.6,13.6,0,0,1,6.56,3.25,8.28,8.28,0,0,1,2.17,6.06Z"/><path class="cls-1" d="M592.14,448.3v.05a3.87,3.87,0,0,1-.56,2.07,3.78,3.78,0,0,1-1.75,1.4,6.94,6.94,0,0,1-2.19.49v-8.08a7.91,7.91,0,0,1,3.54,1.59A3.33,3.33,0,0,1,592.14,448.3Z"/><path class="cls-1" d="M585.54,429.63v7.79a7,7,0,0,1-3.2-1.53,3.32,3.32,0,0,1-1-2.44v0a3.34,3.34,0,0,1,.57-1.93,4.06,4.06,0,0,1,1.71-1.39A6.09,6.09,0,0,1,585.54,429.63Z"/><text class="cls-2" transform="translate(295 781.9)">Chess <tspan class="cls-3" x="332.63" y="0">E</tspan><tspan x="388.1" y="0">arn</tspan></text><path class="cls-4" d="M980.06,587.72,1199.39,674H-26.35L296.51,547H297c-.32.1-.69.19-.94.29L194.76,587.17c-.23.09-.48.18-.68.27s-.32.17-.51.28H453.05a3.67,3.67,0,0,1-.33.51c-17.73,20.6-40.9,47.5-72.44,84.1-.23.27-.49.55-.7.82a6,6,0,0,0-.37.63,7.34,7.34,0,0,0,.78.08l408.35,0c.58,0,1.14,0,1.7,0l.18,0s.07,0,.22-.14l-.9-1.07c-31.12-36.73-54-63.7-71.45-84.35a5.45,5.45,0,0,1-.37-.51H980.06Z"/><path class="cls-4" d="M488.17,547h195l.53.63,33.63,39.69.34.41H453.08a5.48,5.48,0,0,0,.42-.41L488,547.26A1.74,1.74,0,0,0,488.17,547Z"/><path class="cls-5" d="M717.69,587.73l-.34-.41-33.63-39.69-.53-.63H876.53l103.53,40.72H717.69Z"/><path class="cls-5" d="M488.17,547a1.74,1.74,0,0,1-.15.26L453.5,587.32a5.48,5.48,0,0,1-.42.41H193.57c.19-.11.32-.19.51-.28s.45-.18.68-.27l101.29-39.88c.25-.1.62-.19.94-.29Z"/><path class="cls-5" d="M453.05,587.72H717.72a5.45,5.45,0,0,0,.37.51c17.48,20.65,40.33,47.62,71.45,84.35l.9,1.07c-.15.09-.17.12-.22.14l-.18,0c-.56,0-1.12,0-1.7,0l-408.35,0a7.34,7.34,0,0,1-.78-.08,6,6,0,0,1,.37-.63c.21-.27.47-.55.7-.82,31.54-36.6,54.71-63.5,72.44-84.1A3.67,3.67,0,0,0,453.05,587.72Z"/><path d="M188.63,628v-16.1h1.88l7.23,12.17h-1l7.12-12.17h1.89l0,16.1h-2.2l0-12.63h.53L197.71,626h-1.05l-6.4-10.68h.58V628Z"/><path d="M215,628.12a5.68,5.68,0,0,1-2.38-.46,3.62,3.62,0,0,1-1.58-1.28,3.2,3.2,0,0,1-.55-1.85,3.49,3.49,0,0,1,.47-1.79,3.23,3.23,0,0,1,1.54-1.29,7.18,7.18,0,0,1,2.89-.48h3.86v1.58h-3.77a3.28,3.28,0,0,0-2.23.56,1.74,1.74,0,0,0-.58,1.33,1.71,1.71,0,0,0,.72,1.44,3.18,3.18,0,0,0,2,.54,4.28,4.28,0,0,0,2.18-.55,3.12,3.12,0,0,0,1.34-1.62l.44,1.52a3.46,3.46,0,0,1-1.54,1.72A5.55,5.55,0,0,1,215,628.12Zm4-.14V625.4l-.12-.48v-4.39a2.84,2.84,0,0,0-.81-2.17,3.43,3.43,0,0,0-2.45-.78,6.42,6.42,0,0,0-2.12.36,5.54,5.54,0,0,0-1.75,1l-.92-1.66a6.67,6.67,0,0,1,2.27-1.16,9.37,9.37,0,0,1,2.77-.4,5.58,5.58,0,0,1,3.86,1.21,4.76,4.76,0,0,1,1.36,3.73V628Z"/><path d="M229.82,628.12a10.07,10.07,0,0,1-2.88-.41,6.91,6.91,0,0,1-2.16-1l.92-1.74a7.6,7.6,0,0,0,1.94.89,7.48,7.48,0,0,0,2.34.37,4.25,4.25,0,0,0,2.22-.44,1.37,1.37,0,0,0,.68-1.22,1.07,1.07,0,0,0-.41-.89,2.8,2.8,0,0,0-1.1-.49c-.45-.1-1-.2-1.5-.28s-1.11-.19-1.66-.33a6.52,6.52,0,0,1-1.52-.55,2.76,2.76,0,0,1-1.1-1,3,3,0,0,1-.41-1.69,3.1,3.1,0,0,1,.62-1.93,3.94,3.94,0,0,1,1.76-1.28,7.52,7.52,0,0,1,2.7-.44,10.79,10.79,0,0,1,2.43.28,6.34,6.34,0,0,1,2,.82l-.95,1.75a5.15,5.15,0,0,0-1.72-.76,7.88,7.88,0,0,0-1.79-.21,4,4,0,0,0-2.17.47,1.42,1.42,0,0,0-.71,1.21,1.15,1.15,0,0,0,.43,1,3,3,0,0,0,1.1.51,11.13,11.13,0,0,0,1.51.31c.55.09,1.1.19,1.65.33a6.72,6.72,0,0,1,1.51.54,2.92,2.92,0,0,1,1.1,1,2.86,2.86,0,0,1,.43,1.66,3,3,0,0,1-.65,1.91,4.16,4.16,0,0,1-1.81,1.25A7.85,7.85,0,0,1,229.82,628.12Z"/><path d="M237.25,617.61v-1.82H245v1.82Zm5.93,10.51a3.92,3.92,0,0,1-2.85-1,3.79,3.79,0,0,1-1-2.83V613.12h2.21v11.09a2.14,2.14,0,0,0,.49,1.52,1.86,1.86,0,0,0,1.42.53,2.61,2.61,0,0,0,1.72-.58l.69,1.59a3.26,3.26,0,0,1-1.21.64A5,5,0,0,1,243.18,628.12Z"/><path d="M254.64,628.12a7.05,7.05,0,0,1-3.44-.81,5.74,5.74,0,0,1-2.3-2.2,6.81,6.81,0,0,1,0-6.44,5.69,5.69,0,0,1,2.18-2.2,6.65,6.65,0,0,1,6.27,0,5.61,5.61,0,0,1,2.13,2.19,6.89,6.89,0,0,1,.77,3.31c0,.09,0,.19,0,.32s0,.23,0,.34H249.81V621H259l-.9.55a4,4,0,0,0-.48-2.1,3.68,3.68,0,0,0-1.39-1.43,4.32,4.32,0,0,0-4.11,0,3.62,3.62,0,0,0-1.4,1.45,4.34,4.34,0,0,0-.5,2.12V622a4.13,4.13,0,0,0,.56,2.17,3.89,3.89,0,0,0,1.57,1.49,5,5,0,0,0,2.33.53,5.15,5.15,0,0,0,2-.37,4.34,4.34,0,0,0,1.56-1.11l1.22,1.43a5.26,5.26,0,0,1-2.06,1.47A7.13,7.13,0,0,1,254.64,628.12Z"/><path d="M264.44,628V615.79h2.11v3.31l-.2-.82a3.71,3.71,0,0,1,1.7-1.94,6,6,0,0,1,2.94-.66v2.13l-.26,0h-.24a3.72,3.72,0,0,0-2.81,1.06,4.2,4.2,0,0,0-1,3.06V628Z"/><path d="M280.6,617.61v-1.82h7.78v1.82Zm5.94,10.51a3.89,3.89,0,0,1-2.85-1,3.76,3.76,0,0,1-1-2.83V613.12h2.21v11.09a2.14,2.14,0,0,0,.5,1.52,1.85,1.85,0,0,0,1.41.53,2.64,2.64,0,0,0,1.73-.58l.69,1.59a3.26,3.26,0,0,1-1.21.64A5.1,5.1,0,0,1,286.54,628.12Z"/><path d="M293,628V610.92h2.21v8.16l-.43-.87a4.21,4.21,0,0,1,1.84-1.87,6,6,0,0,1,2.89-.66,5.83,5.83,0,0,1,2.64.57A4.12,4.12,0,0,1,304,618a6.11,6.11,0,0,1,.64,3v7h-2.2v-6.76a3.7,3.7,0,0,0-.87-2.67,3.18,3.18,0,0,0-2.42-.9,4.4,4.4,0,0,0-2.05.46,3.22,3.22,0,0,0-1.35,1.36,4.81,4.81,0,0,0-.47,2.23V628Z"/><path d="M315.27,628.12a7.05,7.05,0,0,1-3.44-.81,5.74,5.74,0,0,1-2.3-2.2,6.25,6.25,0,0,1-.82-3.22,6.48,6.48,0,0,1,.79-3.22,5.72,5.72,0,0,1,2.19-2.2,6.65,6.65,0,0,1,6.27,0,5.52,5.52,0,0,1,2.12,2.19,6.77,6.77,0,0,1,.77,3.31c0,.09,0,.19,0,.32s0,.23,0,.34H310.44V621h9.22l-.9.55a4,4,0,0,0-.48-2.1,3.68,3.68,0,0,0-1.39-1.43,4.32,4.32,0,0,0-4.11,0,3.56,3.56,0,0,0-1.4,1.45,4.35,4.35,0,0,0-.51,2.12V622a4.14,4.14,0,0,0,.57,2.17,3.89,3.89,0,0,0,1.57,1.49,5,5,0,0,0,2.32.53,5.16,5.16,0,0,0,2-.37,4.22,4.22,0,0,0,1.55-1.11l1.22,1.43a5.19,5.19,0,0,1-2.06,1.47A7.08,7.08,0,0,1,315.27,628.12Z"/><path d="M340,628.17a9.55,9.55,0,0,1-3.43-.61,8.22,8.22,0,0,1-2.71-1.73,7.74,7.74,0,0,1-1.79-2.61,8.65,8.65,0,0,1,0-6.58,8,8,0,0,1,1.8-2.61,8.12,8.12,0,0,1,2.73-1.72,10.1,10.1,0,0,1,6.94,0,6.79,6.79,0,0,1,2.69,1.86l-1.42,1.43a6.34,6.34,0,0,0-2.15-1.42,7,7,0,0,0-2.52-.45,7.2,7.2,0,0,0-2.57.46,6.12,6.12,0,0,0-2,1.29,5.74,5.74,0,0,0-1.34,2,6.67,6.67,0,0,0,0,4.92,5.88,5.88,0,0,0,1.34,2,6,6,0,0,0,2,1.3,7.1,7.1,0,0,0,2.56.46,7.62,7.62,0,0,0,2.47-.41,5.88,5.88,0,0,0,2.19-1.34l1.32,1.75a8.35,8.35,0,0,1-2.8,1.53A10.79,10.79,0,0,1,340,628.17Zm6.1-2-2.21-.3v-6h2.21Z"/><path d="M354.87,628.12a5.71,5.71,0,0,1-2.38-.46,3.59,3.59,0,0,1-1.57-1.28,3.21,3.21,0,0,1-.56-1.85,3.49,3.49,0,0,1,.47-1.79,3.26,3.26,0,0,1,1.55-1.29,7.13,7.13,0,0,1,2.88-.48h3.87v1.58h-3.78a3.29,3.29,0,0,0-2.23.56,1.77,1.77,0,0,0-.57,1.33,1.73,1.73,0,0,0,.71,1.44,3.23,3.23,0,0,0,2,.54,4.24,4.24,0,0,0,2.17-.55,3.18,3.18,0,0,0,1.35-1.62l.43,1.52a3.46,3.46,0,0,1-1.54,1.72A5.53,5.53,0,0,1,354.87,628.12Zm4-.14V625.4l-.11-.48v-4.39a2.81,2.81,0,0,0-.82-2.17,3.42,3.42,0,0,0-2.45-.78,6.37,6.37,0,0,0-2.11.36,5.43,5.43,0,0,0-1.75,1l-.92-1.66a6.62,6.62,0,0,1,2.26-1.16,9.44,9.44,0,0,1,2.78-.4,5.6,5.6,0,0,1,3.86,1.21,4.8,4.8,0,0,1,1.36,3.73V628Z"/><path d="M366.21,628V615.79h2.12V619l-.35-.82a4.15,4.15,0,0,1,1.77-1.87,5.68,5.68,0,0,1,2.78-.66,5.21,5.21,0,0,1,3,.86,4.06,4.06,0,0,1,1.65,2.61l-.89-.37a4.52,4.52,0,0,1,1.93-2.25,6,6,0,0,1,3.22-.85,5.69,5.69,0,0,1,2.6.57,4.07,4.07,0,0,1,1.76,1.75,6.22,6.22,0,0,1,.63,3v7h-2.21v-6.76a3.78,3.78,0,0,0-.83-2.67,3,3,0,0,0-2.32-.9,4,4,0,0,0-1.93.46,3.12,3.12,0,0,0-1.28,1.36,5,5,0,0,0-.45,2.23V628h-2.2v-6.76a3.88,3.88,0,0,0-.82-2.67,3,3,0,0,0-2.34-.9,3.9,3.9,0,0,0-1.9.46,3.09,3.09,0,0,0-1.29,1.36,4.81,4.81,0,0,0-.46,2.23V628Z"/><path d="M397.1,628.12a7.08,7.08,0,0,1-3.44-.81,5.74,5.74,0,0,1-2.3-2.2,6.81,6.81,0,0,1,0-6.44,5.69,5.69,0,0,1,2.18-2.2,6.65,6.65,0,0,1,6.27,0,5.61,5.61,0,0,1,2.13,2.19,6.89,6.89,0,0,1,.77,3.31c0,.09,0,.19,0,.32s0,.23,0,.34H392.27V621h9.22l-.9.55a4,4,0,0,0-.48-2.1,3.68,3.68,0,0,0-1.39-1.43,4.32,4.32,0,0,0-4.11,0,3.62,3.62,0,0,0-1.4,1.45,4.34,4.34,0,0,0-.5,2.12V622a4.13,4.13,0,0,0,.56,2.17,3.89,3.89,0,0,0,1.57,1.49,5,5,0,0,0,2.33.53,5.15,5.15,0,0,0,2-.37,4.34,4.34,0,0,0,1.56-1.11l1.22,1.43a5.26,5.26,0,0,1-2.06,1.47A7.13,7.13,0,0,1,397.1,628.12Z"/><path d="M772.63,628v-16.1H784v2h-9.06V626h9.38v2Zm2.09-7.2v-1.95H783v1.95Z"/><path d="M792.2,628.12a5.71,5.71,0,0,1-2.38-.46,3.59,3.59,0,0,1-1.57-1.28,3.21,3.21,0,0,1-.56-1.85,3.4,3.4,0,0,1,.48-1.79,3.18,3.18,0,0,1,1.54-1.29,7.13,7.13,0,0,1,2.88-.48h3.87v1.58h-3.77a3.31,3.31,0,0,0-2.24.56,1.77,1.77,0,0,0-.57,1.33,1.73,1.73,0,0,0,.71,1.44,3.23,3.23,0,0,0,2,.54,4.24,4.24,0,0,0,2.17-.55,3.18,3.18,0,0,0,1.35-1.62l.44,1.52a3.53,3.53,0,0,1-1.55,1.72A5.53,5.53,0,0,1,792.2,628.12Zm4-.14V625.4l-.11-.48v-4.39a2.81,2.81,0,0,0-.82-2.17,3.42,3.42,0,0,0-2.45-.78,6.37,6.37,0,0,0-2.11.36,5.43,5.43,0,0,0-1.75,1l-.92-1.66a6.62,6.62,0,0,1,2.26-1.16,9.49,9.49,0,0,1,2.78-.4,5.58,5.58,0,0,1,3.86,1.21,4.8,4.8,0,0,1,1.36,3.73V628Z"/><path d="M803.54,628V615.79h2.12v3.31l-.21-.82a3.75,3.75,0,0,1,1.7-1.94,6,6,0,0,1,3-.66v2.13l-.27,0h-.24a3.74,3.74,0,0,0-2.81,1.06,4.2,4.2,0,0,0-1,3.06V628Z"/><path d="M813.89,628V615.79H816v3.29l-.35-.87a4.26,4.26,0,0,1,1.84-1.87,6.11,6.11,0,0,1,2.9-.66,5.79,5.79,0,0,1,2.63.57,4.14,4.14,0,0,1,1.79,1.75,6.11,6.11,0,0,1,.64,3v7h-2.21v-6.76a3.74,3.74,0,0,0-.86-2.67,3.21,3.21,0,0,0-2.43-.9,4.38,4.38,0,0,0-2,.46,3.11,3.11,0,0,0-1.35,1.36,4.81,4.81,0,0,0-.47,2.23V628Z"/><path d="M836.29,617.61v-1.82h7.78v1.82Zm5.94,10.51a3.89,3.89,0,0,1-2.85-1,3.76,3.76,0,0,1-1-2.83V613.12h2.21v11.09a2.14,2.14,0,0,0,.5,1.52,1.83,1.83,0,0,0,1.41.53,2.66,2.66,0,0,0,1.73-.58l.68,1.59a3.22,3.22,0,0,1-1.2.64A5.1,5.1,0,0,1,842.23,628.12Z"/><path d="M848.71,628V610.92h2.21v8.16l-.44-.87a4.31,4.31,0,0,1,1.84-1.87,6.11,6.11,0,0,1,2.9-.66,5.76,5.76,0,0,1,2.63.57,4.14,4.14,0,0,1,1.79,1.75,6.11,6.11,0,0,1,.64,3v7h-2.21v-6.76a3.7,3.7,0,0,0-.86-2.67,3.19,3.19,0,0,0-2.43-.9,4.38,4.38,0,0,0-2,.46,3.17,3.17,0,0,0-1.35,1.36,4.81,4.81,0,0,0-.47,2.23V628Z"/><path d="M871,628.12a7.08,7.08,0,0,1-3.44-.81,5.87,5.87,0,0,1-2.3-2.2,6.88,6.88,0,0,1,0-6.44,5.72,5.72,0,0,1,2.19-2.2,6.63,6.63,0,0,1,6.26,0,5.48,5.48,0,0,1,2.13,2.19,6.77,6.77,0,0,1,.77,3.31c0,.09,0,.19,0,.32l0,.34H866.12V621h9.23l-.9.55a4.25,4.25,0,0,0-.48-2.1,3.7,3.7,0,0,0-1.4-1.43,3.93,3.93,0,0,0-2.05-.52,4,4,0,0,0-2,.52,3.5,3.5,0,0,0-1.4,1.45,4.35,4.35,0,0,0-.51,2.12V622a4.22,4.22,0,0,0,.56,2.17,3.92,3.92,0,0,0,1.58,1.49,5,5,0,0,0,2.32.53,5.2,5.2,0,0,0,2-.37,4.22,4.22,0,0,0,1.55-1.11l1.22,1.43a5.19,5.19,0,0,1-2.06,1.47A7.13,7.13,0,0,1,871,628.12Z"/><path d="M888.41,628v-16.1h6.28a7.54,7.54,0,0,1,4.92,1.48,5.06,5.06,0,0,1,1.8,4.13,5.38,5.38,0,0,1-.81,3,5.16,5.16,0,0,1-2.3,1.93,8.92,8.92,0,0,1-3.61.66h-5l1-1.06v6Zm2.3-5.73-1-1.12h4.94a5.09,5.09,0,0,0,3.35-1,3.29,3.29,0,0,0,1.14-2.68,3.24,3.24,0,0,0-1.14-2.66,5.15,5.15,0,0,0-3.35-1h-4.94l1-1.15Zm8.46,5.73-4.09-5.84h2.46l4.14,5.84Z"/><path d="M911.39,628.12a7.05,7.05,0,0,1-3.44-.81,5.74,5.74,0,0,1-2.3-2.2,6.25,6.25,0,0,1-.82-3.22,6.48,6.48,0,0,1,.79-3.22,5.72,5.72,0,0,1,2.19-2.2,6.65,6.65,0,0,1,6.27,0,5.61,5.61,0,0,1,2.13,2.19A6.89,6.89,0,0,1,917,622c0,.09,0,.19,0,.32a1.87,1.87,0,0,1,0,.34H906.56V621h9.22l-.9.55a4,4,0,0,0-.48-2.1,3.68,3.68,0,0,0-1.39-1.43,4.32,4.32,0,0,0-4.11,0,3.56,3.56,0,0,0-1.4,1.45,4.35,4.35,0,0,0-.51,2.12V622a4.14,4.14,0,0,0,.57,2.17,3.89,3.89,0,0,0,1.57,1.49,5,5,0,0,0,2.33.53,5.15,5.15,0,0,0,2-.37,4.22,4.22,0,0,0,1.55-1.11l1.22,1.43a5.12,5.12,0,0,1-2.06,1.47A7.08,7.08,0,0,1,911.39,628.12Z"/><path d="M923.53,628,919,615.79h2.09l4,11h-1l4.18-11h1.87l4.09,11h-1l4.11-11h2L934.85,628h-2.12l-3.84-10.07h.64L925.65,628Z"/><path d="M946,628.12a5.71,5.71,0,0,1-2.38-.46,3.59,3.59,0,0,1-1.57-1.28,3.21,3.21,0,0,1-.56-1.85,3.49,3.49,0,0,1,.47-1.79,3.26,3.26,0,0,1,1.55-1.29,7.13,7.13,0,0,1,2.88-.48h3.87v1.58h-3.78a3.29,3.29,0,0,0-2.23.56,1.77,1.77,0,0,0-.57,1.33,1.73,1.73,0,0,0,.71,1.44,3.23,3.23,0,0,0,2,.54,4.24,4.24,0,0,0,2.17-.55,3.18,3.18,0,0,0,1.35-1.62l.44,1.52a3.55,3.55,0,0,1-1.54,1.72A5.59,5.59,0,0,1,946,628.12Zm4-.14V625.4l-.11-.48v-4.39a2.81,2.81,0,0,0-.82-2.17,3.42,3.42,0,0,0-2.45-.78,6.37,6.37,0,0,0-2.11.36,5.43,5.43,0,0,0-1.75,1l-.92-1.66a6.62,6.62,0,0,1,2.26-1.16,9.49,9.49,0,0,1,2.78-.4,5.6,5.6,0,0,1,3.86,1.21,4.8,4.8,0,0,1,1.36,3.73V628Z"/><path d="M957.34,628V615.79h2.12v3.31l-.21-.82a3.75,3.75,0,0,1,1.7-1.94,6,6,0,0,1,2.95-.66v2.13l-.27,0h-.24a3.74,3.74,0,0,0-2.81,1.06,4.2,4.2,0,0,0-1,3.06V628Z"/><path d="M972.61,628.12a6.35,6.35,0,0,1-3.16-.78,5.71,5.71,0,0,1-2.2-2.19,7,7,0,0,1,0-6.52,5.73,5.73,0,0,1,2.2-2.17,6.35,6.35,0,0,1,3.16-.78,5.66,5.66,0,0,1,2.79.69,5,5,0,0,1,2,2.07,7.16,7.16,0,0,1,.75,3.45,7.41,7.41,0,0,1-.72,3.45,5,5,0,0,1-2,2.08A5.74,5.74,0,0,1,972.61,628.12Zm.19-1.93a4.18,4.18,0,0,0,2.08-.53,3.88,3.88,0,0,0,1.47-1.51,4.61,4.61,0,0,0,.54-2.26,4.54,4.54,0,0,0-.54-2.27,3.8,3.8,0,0,0-1.47-1.48,4.39,4.39,0,0,0-4.18,0,3.94,3.94,0,0,0-1.47,1.48,4.44,4.44,0,0,0-.55,2.27,4.5,4.5,0,0,0,.55,2.26,4,4,0,0,0,1.47,1.51A4.17,4.17,0,0,0,972.8,626.19ZM977,628v-3.29l.14-2.83-.23-2.83v-8.11h2.21V628Z"/><path d="M987.91,628.12a10.14,10.14,0,0,1-2.89-.41,6.84,6.84,0,0,1-2.15-1l.92-1.74a8.19,8.19,0,0,0,4.28,1.26,4.25,4.25,0,0,0,2.22-.44,1.37,1.37,0,0,0,.68-1.22,1.05,1.05,0,0,0-.42-.89,2.75,2.75,0,0,0-1.09-.49c-.45-.1-1-.2-1.51-.28s-1.1-.19-1.65-.33a6.52,6.52,0,0,1-1.52-.55,2.7,2.7,0,0,1-1.1-1,3,3,0,0,1-.42-1.69,3.16,3.16,0,0,1,.62-1.93,4,4,0,0,1,1.76-1.28,7.56,7.56,0,0,1,2.7-.44,10.73,10.73,0,0,1,2.43.28,6.24,6.24,0,0,1,2,.82l-.94,1.75a5.24,5.24,0,0,0-1.72-.76,7.9,7.9,0,0,0-1.8-.21,4,4,0,0,0-2.16.47,1.4,1.4,0,0,0-.71,1.21,1.17,1.17,0,0,0,.42,1,3.09,3.09,0,0,0,1.11.51,11.29,11.29,0,0,0,1.5.31c.55.09,1.11.19,1.66.33a6.64,6.64,0,0,1,1.5.54,3.07,3.07,0,0,1,.89,4.53,4.19,4.19,0,0,1-1.82,1.25A7.79,7.79,0,0,1,987.91,628.12Z"/></g></svg>