<svg xmlns="http://www.w3.org/2000/svg" viewBox="0 0 200 200"><defs><style>.cls-1{fill:#27b263;}.cls-2{fill:none;}.cls-3{fill:#002a4e;stroke:#fff;stroke-miterlimit:10;}</style></defs><g id="Icon"><path class="cls-1" d="M91.08,74.5h0Z"/><path class="cls-1" d="M103.12,74.53l-.17,0h.17Z"/><path class="cls-1" d="M91.05,74.5h0Z"/><path class="cls-1" d="M103.12,74.5v0l-.17,0Z"/><path class="cls-1" d="M108.29,64.92l3.84-13.09a1,1,0,0,0-1-1.33H107.8a1,1,0,0,0-1,.74l-1.89,6.48h-3.07l.82-6a1,1,0,0,0-1-1.17H92.05a1,1,0,0,0-1,1.17l.82,6H88.78l-1.89-6.48a1,1,0,0,0-1-.74H82.55a1,1,0,0,0-1,1.33L85.4,64.92a2.58,2.58,0,0,0,2.48,1.86h.17a2.29,2.29,0,0,0,0,4.57h2.18a1.63,1.63,0,0,0,.5,3.19,1.76,1.76,0,0,0,.33,0h0a74.06,74.06,0,0,1-6.33,30.13H83.53a.88.88,0,0,0-.77,1.32l1.95,2.35h24.62l1.94-2.35a.88.88,0,0,0-.77-1.32h-1.19a75.71,75.71,0,0,1-6.19-30.11l-.17,0h.17v0h.19a1.47,1.47,0,0,0,.36,0,1.64,1.64,0,0,0,.91-.56,1.62,1.62,0,0,0,.37-1,1.64,1.64,0,0,0-1.14-1.56h1.82a2.07,2.07,0,0,0,.5-.06,2.28,2.28,0,0,0,1.79-2.23,2.16,2.16,0,0,0-2.2-2.28h.09A2.58,2.58,0,0,0,108.29,64.92Zm-4.2,28.66a7.73,7.73,0,0,1,0,6A7.65,7.65,0,0,1,97,104.23a7.59,7.59,0,0,1-3-.6A7.49,7.49,0,0,1,91.6,102,7.74,7.74,0,0,1,90,99.55a7.73,7.73,0,0,1,0-6A7.66,7.66,0,0,1,97,88.89a7.64,7.64,0,0,1,3,.6,7.74,7.74,0,0,1,2.44,1.65A7.49,7.49,0,0,1,104.09,93.58Z"/><path class="cls-1" d="M119.64,124.69V128H74.39v-3.27A3.28,3.28,0,0,1,76,121.86a3.24,3.24,0,0,1,1.64-.44,3.28,3.28,0,0,1-3.27-3.27c0-2.39,2.09-3.34,3.86-4.38a27.21,27.21,0,0,0,2.37-1.59,25,25,0,0,0,2.16-1.84c.35-.33.69-.67,1-1l.87-1h24.69l.87,1c.33.36.67.7,1,1a25,25,0,0,0,2.16,1.84,27.21,27.21,0,0,0,2.37,1.59c1.77,1,3.86,2,3.86,4.38a3.28,3.28,0,0,1-3.27,3.27A3.27,3.27,0,0,1,119.64,124.69Z"/><path class="cls-1" d="M104.09,93.58a7.49,7.49,0,0,0-1.64-2.44A7.74,7.74,0,0,0,100,89.49a7.73,7.73,0,0,0-6,0,7.66,7.66,0,0,0-4.69,7.07,7.64,7.64,0,0,0,.6,3A7.74,7.74,0,0,0,91.6,102,7.49,7.49,0,0,0,94,103.63a7.73,7.73,0,0,0,6,0,7.65,7.65,0,0,0,4.68-7.07A7.59,7.59,0,0,0,104.09,93.58ZM103,99.07a6.57,6.57,0,0,1-3.44,3.44,6.43,6.43,0,0,1-5,0A6.45,6.45,0,1,1,103,94.05a6.55,6.55,0,0,1,0,5Z"/><path class="cls-1" d="M97,90.68a5.89,5.89,0,1,0,5.88,5.88A5.88,5.88,0,0,0,97,90.68ZM99.55,98a2.11,2.11,0,0,1-.32,1.2,2.14,2.14,0,0,1-.9.75,3,3,0,0,1-1.06.25v.88H96.8v-.88a2.89,2.89,0,0,1-1-.24,2,2,0,0,1-.88-.71,2,2,0,0,1-.37-1.11V98.1h1.24v.05a1.14,1.14,0,0,0,.2.48.91.91,0,0,0,.42.32,1.5,1.5,0,0,0,.44.11V97.17l-.34-.08a2.7,2.7,0,0,1-1.4-.73A1.89,1.89,0,0,1,94.59,95h0a2,2,0,0,1,.31-1.13,2.07,2.07,0,0,1,.85-.75,2.9,2.9,0,0,1,1-.26V92h.47v.89a2.76,2.76,0,0,1,1,.23,2,2,0,0,1,.85.71,2.22,2.22,0,0,1,.36,1.11V95H98.23v0a1,1,0,0,0-.19-.51,1,1,0,0,0-.42-.32,1.69,1.69,0,0,0-.34-.09v1.82l.36.09a3,3,0,0,1,1.45.72A1.8,1.8,0,0,1,99.55,98Z"/><path class="cls-1" d="M98.26,98.18h0a.88.88,0,0,1-.12.46,1,1,0,0,1-.39.31,1.56,1.56,0,0,1-.48.1V97.28a1.9,1.9,0,0,1,.78.35A.75.75,0,0,1,98.26,98.18Z"/><path class="cls-1" d="M96.8,94.07v1.71a1.57,1.57,0,0,1-.7-.33.77.77,0,0,1-.22-.54h0a.77.77,0,0,1,.13-.42.91.91,0,0,1,.38-.31A1.23,1.23,0,0,1,96.8,94.07Z"/><path class="cls-2" d="M184.77,129.92l48.35,19H-37.08l71.17-28h.11L34,121l-22.33,8.79-.15.06-.11.06H68.6a1.05,1.05,0,0,0-.07.11l-16,18.54-.16.18s0,.09-.08.14h90.6l.05,0-.2-.24L127,130l-.08-.12h57.83Z"/><path class="cls-2" d="M76.34,120.94h43l.12.14,7.41,8.75.07.09H68.6l.1-.09c3.06-3.56,5.55-6.45,7.61-8.83Z"/><path class="cls-3" d="M126.93,129.92l-.07-.09-7.41-8.75-.12-.14H162l22.82,9H126.93Z"/><path class="cls-3" d="M76.34,120.94l0,.06c-2.06,2.38-4.55,5.27-7.61,8.83l-.1.09H11.4l.11-.06.15-.06L34,121l.21-.06Z"/><path class="cls-3" d="M68.6,129.92h58.34l.08.12,15.75,18.59.2.24-.05,0H52.32s0-.1.08-.14l.16-.18,16-18.54A1.05,1.05,0,0,1,68.6,129.92Z"/></g></svg>