<svg xmlns="http://www.w3.org/2000/svg" viewBox="0 0 320 320"><defs><style>.cls-1{fill:#27b263;}.cls-2{font-size:43.6px;font-family:Monda-Regular, Monda;}.cls-3{letter-spacing:-0.02em;}.cls-4{letter-spacing:0em;}.cls-5{fill:none;}.cls-6{fill:#002a4e;stroke:#fff;stroke-miterlimit:10;}</style></defs><g id="Icon"><path class="cls-1" d="M151.08,107.63h0Z"/><path class="cls-1" d="M171.22,107.68l-.28-.05h.28Z"/><path class="cls-1" d="M151,107.63h0Z"/><path class="cls-1" d="M171.22,107.63v.05l-.28-.05Z"/><path class="cls-1" d="M179.86,91.61l6.42-21.89a1.74,1.74,0,0,0-1.67-2.22H179a1.75,1.75,0,0,0-1.67,1.25L174.2,79.57h-5.12l1.37-10.11a1.73,1.73,0,0,0-1.71-2h-16a1.73,1.73,0,0,0-1.72,2l1.37,10.11h-5.12l-3.17-10.82a1.75,1.75,0,0,0-1.67-1.25h-5.58a1.74,1.74,0,0,0-1.66,2.22l6.42,21.89a4.33,4.33,0,0,0,4.15,3.11H146a3.82,3.82,0,0,0,0,7.64h3.65a2.74,2.74,0,0,0,.84,5.34,2.51,2.51,0,0,0,.55-.06h0A123.94,123.94,0,0,1,140.46,158h-2a1.47,1.47,0,0,0-1.29,2.2l3.25,3.93h41.16l3.26-3.93a1.48,1.48,0,0,0-1.29-2.2h-2a126.76,126.76,0,0,1-10.34-50.34l-.28-.05h.28v.05l.32,0a2.88,2.88,0,0,0,.59-.07,2.77,2.77,0,0,0,1.53-.95,2.73,2.73,0,0,0-1.29-4.32h3a4.58,4.58,0,0,0,.83-.09,3.83,3.83,0,0,0,3-3.73,3.62,3.62,0,0,0-3.68-3.82h.15A4.33,4.33,0,0,0,179.86,91.61Zm-7,47.91A12.81,12.81,0,1,1,156,132.69a12.79,12.79,0,0,1,14.06,2.75A12.66,12.66,0,0,1,172.84,139.52Z"/><path class="cls-1" d="M198.83,191.53V197H123.19v-5.47a5.44,5.44,0,0,1,5.47-5.46,5.47,5.47,0,0,1-5.47-5.47c0-4,3.49-5.57,6.46-7.33a41.72,41.72,0,0,0,3.94-2.65,40.76,40.76,0,0,0,3.62-3.07c.59-.56,1.16-1.13,1.71-1.72.22-.23,1.45-1.64,1.45-1.64h41.28l1.45,1.64c.56.59,1.13,1.16,1.72,1.72a41.74,41.74,0,0,0,7.56,5.72c3,1.76,6.45,3.34,6.45,7.33a5.46,5.46,0,0,1-5.46,5.47A5.45,5.45,0,0,1,198.83,191.53Z"/><path class="cls-1" d="M172.84,139.52a12.9,12.9,0,0,0-6.82-6.83A12.79,12.79,0,0,0,152,135.44a12.82,12.82,0,1,0,20.88,4.08ZM171,148.71a10.75,10.75,0,0,1-2.31,3.43A10.78,10.78,0,0,1,161,155.3a10.76,10.76,0,0,1-4.2-.85,10.64,10.64,0,0,1-3.43-2.31,10.75,10.75,0,0,1-2.31-3.43,10.8,10.8,0,0,1,0-8.4,10.79,10.79,0,0,1,20.72,4.2A10.58,10.58,0,0,1,171,148.71Z"/><path class="cls-1" d="M161,134.68a9.84,9.84,0,1,0,9.83,9.83A9.83,9.83,0,0,0,161,134.68ZM165.26,147a3.4,3.4,0,0,1-2,3.25,5.06,5.06,0,0,1-1.79.42v1.47h-.77v-1.47a5,5,0,0,1-1.76-.39,3.42,3.42,0,0,1-2.1-3.06v-.13h2.07l0,.09a1.84,1.84,0,0,0,.33.8,1.7,1.7,0,0,0,.71.54,2.6,2.6,0,0,0,.74.17v-3.15l-.58-.13a4.64,4.64,0,0,1-2.34-1.22,3.17,3.17,0,0,1-.78-2.24h0a3.42,3.42,0,0,1,.51-1.89,3.49,3.49,0,0,1,1.43-1.25,4.6,4.6,0,0,1,1.76-.43v-1.47h.77v1.47a4.65,4.65,0,0,1,1.65.4,3.36,3.36,0,0,1,1.42,1.18,3.94,3.94,0,0,1,.6,1.86V142H163v-.08a1.69,1.69,0,0,0-.33-.86,1.66,1.66,0,0,0-.69-.52,2.46,2.46,0,0,0-.58-.15v3l.61.15a5,5,0,0,1,2.42,1.2,3,3,0,0,1,.8,2.23Z"/><path class="cls-1" d="M163.09,147.22h0a1.41,1.41,0,0,1-.21.77,1.35,1.35,0,0,1-.64.52,2.57,2.57,0,0,1-.81.17v-3a2.92,2.92,0,0,1,1.31.58A1.27,1.27,0,0,1,163.09,147.22Z"/><path class="cls-1" d="M160.66,140.34v2.87a2.54,2.54,0,0,1-1.18-.57,1.22,1.22,0,0,1-.36-.9h0a1.29,1.29,0,0,1,.21-.72,1.48,1.48,0,0,1,.63-.51A2.06,2.06,0,0,1,160.66,140.34Z"/><text class="cls-2" transform="translate(53.58 270.17)">Chess <tspan class="cls-3" x="122.59" y="0">E</tspan><tspan class="cls-4" x="143.03" y="0">arn</tspan></text><path class="cls-5" d="M306.06,198.6l80.83,31.8H-64.85l119-46.81h.17c-.11,0-.25.07-.34.11L16.64,198.4a1.45,1.45,0,0,0-.25.1l-.19.1h95.63a2,2,0,0,1-.12.19l-26.7,31c-.08.1-.18.2-.26.31a1.71,1.71,0,0,0-.13.23l.29,0H235.4l.63,0h.06l.08,0-.33-.39-26.33-31.09-.14-.19h96.69Z"/><path class="cls-5" d="M124.77,183.59h71.88l.19.24,12.4,14.62.12.15h-.7q-48,0-96.06,0h-.76l.16-.15,12.72-14.76A.47.47,0,0,0,124.77,183.59Z"/><path class="cls-6" d="M209.36,198.6l-.12-.15-12.4-14.62-.19-.24H267.9l38.16,15h-96.7Z"/><path class="cls-6" d="M124.77,183.59a.47.47,0,0,1,0,.1L112,198.45l-.16.15H16.2l.19-.1a1.45,1.45,0,0,1,.25-.1L54,183.7c.09,0,.23-.07.34-.11Z"/><path class="cls-6" d="M111.83,198.6h.77q48,0,96.06,0h.71l.14.19,26.33,31.09.33.39-.08,0H236l-.63,0H84.91l-.29,0a1.71,1.71,0,0,1,.13-.23c.08-.11.18-.21.26-.31l26.7-31A2,2,0,0,0,111.83,198.6Z"/><path d="M14.38,213.44v-5.93h.69L17.74,212h-.38L20,207.51h.7v5.93h-.81v-4.65h.2l-2.34,3.93h-.39L15,208.79h.21v4.65Z"/><path d="M24.09,213.49a2.14,2.14,0,0,1-.87-.17,1.25,1.25,0,0,1-.58-.47,1.16,1.16,0,0,1-.21-.68,1.23,1.23,0,0,1,.18-.66,1.17,1.17,0,0,1,.56-.48,2.65,2.65,0,0,1,1.07-.18h1.42v.59H24.27a1.23,1.23,0,0,0-.82.2.67.67,0,0,0-.21.49.64.64,0,0,0,.26.53,1.15,1.15,0,0,0,.73.2,1.61,1.61,0,0,0,.8-.2,1.21,1.21,0,0,0,.5-.59l.16.56a1.33,1.33,0,0,1-.57.63A2.09,2.09,0,0,1,24.09,213.49Zm1.48-.05v-.95l0-.18v-1.62a1.06,1.06,0,0,0-.3-.8,1.31,1.31,0,0,0-.91-.28,2.36,2.36,0,0,0-.78.13,2,2,0,0,0-.64.35l-.34-.61a2.42,2.42,0,0,1,.83-.43,3.52,3.52,0,0,1,1-.15,2.05,2.05,0,0,1,1.42.45,1.78,1.78,0,0,1,.5,1.38v2.71Z"/><path d="M29.56,213.49a3.67,3.67,0,0,1-1.06-.15,2.49,2.49,0,0,1-.8-.38l.34-.64a3.11,3.11,0,0,0,1.58.47,1.66,1.66,0,0,0,.82-.16.53.53,0,0,0,.25-.45.39.39,0,0,0-.15-.33,1.11,1.11,0,0,0-.41-.18l-.55-.11a6,6,0,0,1-.61-.12,2,2,0,0,1-.56-.2,1.1,1.1,0,0,1-.41-.36,1.18,1.18,0,0,1-.15-.63,1.1,1.1,0,0,1,.23-.71,1.46,1.46,0,0,1,.65-.47,2.7,2.7,0,0,1,1-.17,4,4,0,0,1,.9.11,2.2,2.2,0,0,1,.74.3L31,210a1.81,1.81,0,0,0-.64-.28,2.48,2.48,0,0,0-.66-.08,1.5,1.5,0,0,0-.79.17.53.53,0,0,0-.27.45.43.43,0,0,0,.16.35,1.11,1.11,0,0,0,.41.19c.16.05.35.08.55.12l.61.11a2.83,2.83,0,0,1,.56.2,1.29,1.29,0,0,1,.41.36,1.1,1.1,0,0,1,.15.61,1.06,1.06,0,0,1-.24.7,1.55,1.55,0,0,1-.67.47A2.86,2.86,0,0,1,29.56,213.49Z"/><path d="M32.3,209.62V209h2.86v.67Zm2.19,3.87a1.46,1.46,0,0,1-1.06-.36,1.44,1.44,0,0,1-.37-1V208h.82v4.09a.8.8,0,0,0,.18.56.67.67,0,0,0,.52.19,1,1,0,0,0,.63-.21l.26.59a1.28,1.28,0,0,1-.45.23A1.89,1.89,0,0,1,34.49,213.49Z"/><path d="M38.71,213.49a2.59,2.59,0,0,1-1.27-.3,2.14,2.14,0,0,1-.85-.81,2.31,2.31,0,0,1-.3-1.19,2.4,2.4,0,0,1,.29-1.18,2.1,2.1,0,0,1,.81-.81,2.25,2.25,0,0,1,1.16-.3,2.28,2.28,0,0,1,1.15.29,2,2,0,0,1,.78.81,2.5,2.5,0,0,1,.29,1.22.57.57,0,0,1,0,.12.49.49,0,0,1,0,.12H36.93v-.58h3.4l-.33.2a1.62,1.62,0,0,0-.18-.77,1.47,1.47,0,0,0-.52-.53,1.42,1.42,0,0,0-.75-.19,1.45,1.45,0,0,0-.76.19,1.42,1.42,0,0,0-.52.54,1.63,1.63,0,0,0-.18.78v.14a1.54,1.54,0,0,0,.21.8,1.38,1.38,0,0,0,.58.54,1.78,1.78,0,0,0,.85.2,1.9,1.9,0,0,0,.73-.14,1.6,1.6,0,0,0,.57-.4l.45.52a2,2,0,0,1-.76.54A2.53,2.53,0,0,1,38.71,213.49Z"/><path d="M42.32,213.44V209h.78v1.22l-.08-.31a1.37,1.37,0,0,1,.63-.71,2.21,2.21,0,0,1,1.08-.25v.79h-.18a1.4,1.4,0,0,0-1,.39,1.57,1.57,0,0,0-.38,1.13v2.24Z"/><path d="M48.28,209.62V209h2.86v.67Zm2.18,3.87a1.45,1.45,0,0,1-1.05-.36,1.4,1.4,0,0,1-.37-1V208h.81v4.09a.76.76,0,0,0,.19.56.67.67,0,0,0,.52.19,1,1,0,0,0,.63-.21l.26.59a1.37,1.37,0,0,1-.45.23A1.91,1.91,0,0,1,50.46,213.49Z"/><path d="M52.85,213.44v-6.29h.82v3l-.16-.32a1.49,1.49,0,0,1,.67-.69,2.31,2.31,0,0,1,1.07-.25,2.13,2.13,0,0,1,1,.22,1.51,1.51,0,0,1,.66.64,2.23,2.23,0,0,1,.24,1.09v2.59H56.3V211a1.38,1.38,0,0,0-.31-1,1.2,1.2,0,0,0-.9-.33,1.6,1.6,0,0,0-.75.17,1.21,1.21,0,0,0-.5.5,1.84,1.84,0,0,0-.17.82v2.32Z"/><path d="M61.05,213.49a2.62,2.62,0,0,1-1.27-.3,2.11,2.11,0,0,1-.84-.81,2.53,2.53,0,0,1,0-2.37,2,2,0,0,1,.8-.81,2.41,2.41,0,0,1,2.31,0,2,2,0,0,1,.79.81,2.5,2.5,0,0,1,.28,1.22v.12s0,.08,0,.12H59.27v-.58h3.4l-.33.2a1.42,1.42,0,0,0-.18-.77,1.37,1.37,0,0,0-.51-.53,1.6,1.6,0,0,0-1.51,0,1.35,1.35,0,0,0-.52.54,1.53,1.53,0,0,0-.19.78v.14a1.54,1.54,0,0,0,.21.8,1.44,1.44,0,0,0,.58.54,1.82,1.82,0,0,0,.86.2,1.89,1.89,0,0,0,.72-.14,1.51,1.51,0,0,0,.57-.4l.45.52a1.82,1.82,0,0,1-.76.54A2.53,2.53,0,0,1,61.05,213.49Z"/><path d="M70.16,213.51a3.44,3.44,0,0,1-1.26-.23,3,3,0,0,1-1-.63,3.09,3.09,0,0,1-.66-1,3,3,0,0,1-.24-1.21,3,3,0,0,1,.24-1.21,2.94,2.94,0,0,1,1.67-1.6,3.46,3.46,0,0,1,1.27-.22,3.37,3.37,0,0,1,1.29.23,2.55,2.55,0,0,1,1,.68l-.52.53a2.34,2.34,0,0,0-.8-.52,2.52,2.52,0,0,0-.93-.17,2.66,2.66,0,0,0-.94.17,2.23,2.23,0,0,0-.76.48,2.14,2.14,0,0,0-.49.72,2.46,2.46,0,0,0-.17.91,2.49,2.49,0,0,0,.17.91,2.14,2.14,0,0,0,.49.72,2.29,2.29,0,0,0,.75.48,2.47,2.47,0,0,0,.95.17,2.8,2.8,0,0,0,.91-.15,2.15,2.15,0,0,0,.81-.49l.48.64a3,3,0,0,1-1,.57A4.15,4.15,0,0,1,70.16,213.51Zm2.25-.76-.81-.11v-2.2h.81Z"/><path d="M75.65,213.49a2.16,2.16,0,0,1-.88-.17,1.3,1.3,0,0,1-.58-.47,1.16,1.16,0,0,1-.2-.68,1.23,1.23,0,0,1,.17-.66,1.2,1.2,0,0,1,.57-.48,2.56,2.56,0,0,1,1.06-.18h1.43v.59H75.83a1.27,1.27,0,0,0-.83.2.67.67,0,0,0-.21.49.64.64,0,0,0,.26.53,1.15,1.15,0,0,0,.73.2,1.58,1.58,0,0,0,.8-.2,1.16,1.16,0,0,0,.5-.59l.16.56a1.33,1.33,0,0,1-.57.63A2.08,2.08,0,0,1,75.65,213.49Zm1.47-.05v-.95l0-.18v-1.62a1.06,1.06,0,0,0-.3-.8,1.26,1.26,0,0,0-.9-.28,2.28,2.28,0,0,0-.78.13,2,2,0,0,0-.65.35l-.34-.61a2.38,2.38,0,0,1,.84-.43,3.4,3.4,0,0,1,1-.15,2,2,0,0,1,1.42.45,1.74,1.74,0,0,1,.5,1.38v2.71Z"/><path d="M79.83,213.44V209h.78v1.19l-.13-.3a1.5,1.5,0,0,1,.65-.69,2.15,2.15,0,0,1,1-.25,1.93,1.93,0,0,1,1.11.32,1.51,1.51,0,0,1,.61,1l-.33-.13a1.63,1.63,0,0,1,.71-.83,2.2,2.2,0,0,1,1.19-.32,2,2,0,0,1,1,.22,1.44,1.44,0,0,1,.65.64,2.23,2.23,0,0,1,.24,1.09v2.59h-.82V211a1.43,1.43,0,0,0-.3-1,1.12,1.12,0,0,0-.86-.33,1.46,1.46,0,0,0-.71.17,1.2,1.2,0,0,0-.47.5,1.84,1.84,0,0,0-.17.82v2.32h-.81V211a1.43,1.43,0,0,0-.3-1,1.11,1.11,0,0,0-.86-.33,1.49,1.49,0,0,0-.71.17,1.2,1.2,0,0,0-.47.5,1.84,1.84,0,0,0-.17.82v2.32Z"/><path d="M91.21,213.49a2.62,2.62,0,0,1-1.27-.3,2.11,2.11,0,0,1-.84-.81,2.22,2.22,0,0,1-.31-1.19,2.3,2.3,0,0,1,.3-1.18,2,2,0,0,1,.8-.81,2.25,2.25,0,0,1,1.16-.3,2.28,2.28,0,0,1,1.15.29A2,2,0,0,1,93,210a2.5,2.5,0,0,1,.28,1.22v.12s0,.08,0,.12H89.43v-.58h3.4l-.33.2a1.62,1.62,0,0,0-.18-.77,1.37,1.37,0,0,0-.51-.53,1.45,1.45,0,0,0-.76-.19,1.51,1.51,0,0,0-.76.19,1.33,1.33,0,0,0-.51.54,1.53,1.53,0,0,0-.19.78v.14a1.54,1.54,0,0,0,.21.8,1.44,1.44,0,0,0,.58.54,1.82,1.82,0,0,0,.86.2,1.89,1.89,0,0,0,.72-.14,1.51,1.51,0,0,0,.57-.4l.45.52a1.82,1.82,0,0,1-.76.54A2.53,2.53,0,0,1,91.21,213.49Z"/><path d="M229.61,213.44v-5.93h4.19v.73h-3.34v4.46h3.46v.74Zm.77-2.65v-.72h3.05v.72Z"/><path d="M236.82,213.49a2.14,2.14,0,0,1-.87-.17,1.25,1.25,0,0,1-.58-.47,1.16,1.16,0,0,1-.21-.68,1.23,1.23,0,0,1,.18-.66,1.17,1.17,0,0,1,.56-.48,2.65,2.65,0,0,1,1.07-.18h1.42v.59H237a1.23,1.23,0,0,0-.82.2.67.67,0,0,0-.21.49.61.61,0,0,0,.26.53,1.15,1.15,0,0,0,.73.2,1.61,1.61,0,0,0,.8-.2,1.21,1.21,0,0,0,.5-.59l.16.56a1.33,1.33,0,0,1-.57.63A2.09,2.09,0,0,1,236.82,213.49Zm1.48-.05v-.95l0-.18v-1.62a1.06,1.06,0,0,0-.3-.8,1.31,1.31,0,0,0-.91-.28,2.36,2.36,0,0,0-.78.13,2,2,0,0,0-.64.35l-.34-.61a2.42,2.42,0,0,1,.83-.43,3.52,3.52,0,0,1,1-.15,2.05,2.05,0,0,1,1.42.45,1.78,1.78,0,0,1,.5,1.38v2.71Z"/><path d="M241,213.44V209h.78v1.22l-.07-.31a1.35,1.35,0,0,1,.62-.71,2.28,2.28,0,0,1,1.09-.25v.79h-.19a1.37,1.37,0,0,0-1,.39,1.53,1.53,0,0,0-.38,1.13v2.24Z"/><path d="M244.82,213.44V209h.78v1.21l-.13-.32a1.51,1.51,0,0,1,.68-.69,2.24,2.24,0,0,1,1.06-.25,2.18,2.18,0,0,1,1,.22,1.49,1.49,0,0,1,.65.64,2.23,2.23,0,0,1,.24,1.09v2.59h-.81V211a1.39,1.39,0,0,0-.32-1,1.19,1.19,0,0,0-.9-.33,1.63,1.63,0,0,0-.75.17,1.21,1.21,0,0,0-.5.5,1.84,1.84,0,0,0-.17.82v2.32Z"/><path d="M253.07,209.62V209h2.87v.67Zm2.19,3.87a1.45,1.45,0,0,1-1-.36,1.41,1.41,0,0,1-.38-1V208h.82v4.09a.8.8,0,0,0,.18.56.68.68,0,0,0,.52.19,1,1,0,0,0,.64-.21l.25.59a1.23,1.23,0,0,1-.44.23A2,2,0,0,1,255.26,213.49Z"/><path d="M257.65,213.44v-6.29h.81v3l-.16-.32a1.56,1.56,0,0,1,.68-.69,2.28,2.28,0,0,1,1.07-.25,2.13,2.13,0,0,1,1,.22,1.51,1.51,0,0,1,.66.64,2.35,2.35,0,0,1,.23,1.09v2.59h-.81V211a1.39,1.39,0,0,0-.32-1,1.18,1.18,0,0,0-.89-.33,1.67,1.67,0,0,0-.76.17,1.18,1.18,0,0,0-.49.5,1.71,1.71,0,0,0-.18.82v2.32Z"/><path d="M265.85,213.49a2.59,2.59,0,0,1-1.27-.3,2.08,2.08,0,0,1-.85-.81,2.31,2.31,0,0,1-.3-1.19,2.4,2.4,0,0,1,.29-1.18,2.1,2.1,0,0,1,.81-.81,2.25,2.25,0,0,1,1.16-.3,2.31,2.31,0,0,1,1.15.29,2,2,0,0,1,.78.81,2.5,2.5,0,0,1,.29,1.22.57.57,0,0,1,0,.12.49.49,0,0,1,0,.12h-3.82v-.58h3.4l-.33.2a1.62,1.62,0,0,0-.18-.77,1.47,1.47,0,0,0-.52-.53,1.42,1.42,0,0,0-.75-.19,1.45,1.45,0,0,0-.76.19,1.42,1.42,0,0,0-.52.54,1.63,1.63,0,0,0-.18.78v.14a1.54,1.54,0,0,0,.21.8,1.38,1.38,0,0,0,.58.54,1.78,1.78,0,0,0,.85.2,1.9,1.9,0,0,0,.73-.14,1.6,1.6,0,0,0,.57-.4l.45.52a1.89,1.89,0,0,1-.76.54A2.53,2.53,0,0,1,265.85,213.49Z"/><path d="M272.28,213.44v-5.93h2.31a2.8,2.8,0,0,1,1.82.54,1.87,1.87,0,0,1,.66,1.52,2,2,0,0,1-.3,1.11,1.9,1.9,0,0,1-.84.71,3.38,3.38,0,0,1-1.34.24h-1.84l.38-.39v2.2Zm.85-2.11-.38-.42h1.82a1.84,1.84,0,0,0,1.23-.35,1.37,1.37,0,0,0,0-2,1.9,1.9,0,0,0-1.23-.35h-1.82l.38-.42Zm3.12,2.11-1.51-2.15h.91l1.52,2.15Z"/><path d="M280.75,213.49a2.62,2.62,0,0,1-1.27-.3,2.14,2.14,0,0,1-.85-.81,2.31,2.31,0,0,1-.3-1.19,2.4,2.4,0,0,1,.29-1.18,2.1,2.1,0,0,1,.81-.81,2.25,2.25,0,0,1,1.16-.3,2.28,2.28,0,0,1,1.15.29,2,2,0,0,1,.78.81,2.5,2.5,0,0,1,.29,1.22.57.57,0,0,1,0,.12.49.49,0,0,1,0,.12H279v-.58h3.4l-.33.2a1.62,1.62,0,0,0-.18-.77,1.52,1.52,0,0,0-.51-.53,1.62,1.62,0,0,0-1.52,0,1.33,1.33,0,0,0-.51.54,1.53,1.53,0,0,0-.19.78v.14a1.54,1.54,0,0,0,.21.8,1.44,1.44,0,0,0,.58.54,1.81,1.81,0,0,0,.85.2,1.9,1.9,0,0,0,.73-.14,1.51,1.51,0,0,0,.57-.4l.45.52a1.89,1.89,0,0,1-.76.54A2.53,2.53,0,0,1,280.75,213.49Z"/><path d="M285.22,213.44,283.55,209h.78l1.48,4.07h-.36L287,209h.68l1.51,4.07h-.35l1.51-4.07h.73l-1.67,4.49h-.78l-1.42-3.71h.24L286,213.44Z"/><path d="M293.51,213.49a2.16,2.16,0,0,1-.88-.17,1.3,1.3,0,0,1-.58-.47,1.16,1.16,0,0,1-.21-.68,1.23,1.23,0,0,1,.18-.66,1.15,1.15,0,0,1,.57-.48,2.56,2.56,0,0,1,1.06-.18h1.42v.59h-1.39a1.25,1.25,0,0,0-.82.2.67.67,0,0,0-.21.49.64.64,0,0,0,.26.53,1.15,1.15,0,0,0,.73.2,1.58,1.58,0,0,0,.8-.2,1.16,1.16,0,0,0,.5-.59l.16.56a1.33,1.33,0,0,1-.57.63A2.08,2.08,0,0,1,293.51,213.49Zm1.47-.05v-.95l0-.18v-1.62a1.06,1.06,0,0,0-.3-.8,1.26,1.26,0,0,0-.9-.28,2.28,2.28,0,0,0-.78.13,2,2,0,0,0-.65.35l-.34-.61a2.38,2.38,0,0,1,.84-.43,3.4,3.4,0,0,1,1-.15,2.05,2.05,0,0,1,1.42.45,1.74,1.74,0,0,1,.5,1.38v2.71Z"/><path d="M297.68,213.44V209h.78v1.22l-.07-.31a1.33,1.33,0,0,1,.63-.71,2.21,2.21,0,0,1,1.08-.25v.79h-.19a1.37,1.37,0,0,0-1,.39,1.53,1.53,0,0,0-.38,1.13v2.24Z"/><path d="M303.31,213.49a2.35,2.35,0,0,1-1.16-.29,2.14,2.14,0,0,1-.81-.8,2.57,2.57,0,0,1,0-2.41,2.14,2.14,0,0,1,.81-.8,2.35,2.35,0,0,1,1.16-.29,2.1,2.1,0,0,1,1,.26,1.85,1.85,0,0,1,.73.76,2.57,2.57,0,0,1,.28,1.27,2.66,2.66,0,0,1-.27,1.27,1.85,1.85,0,0,1-.72.77A2.15,2.15,0,0,1,303.31,213.49Zm.07-.71a1.55,1.55,0,0,0,.77-.2,1.36,1.36,0,0,0,.54-.55,1.74,1.74,0,0,0,.2-.84,1.67,1.67,0,0,0-.2-.83,1.36,1.36,0,0,0-.54-.55,1.54,1.54,0,0,0-.77-.19,1.52,1.52,0,0,0-.77.19,1.36,1.36,0,0,0-.54.55,1.57,1.57,0,0,0-.21.83,1.64,1.64,0,0,0,.21.84,1.36,1.36,0,0,0,.54.55A1.52,1.52,0,0,0,303.38,212.78Zm1.54.66v-1.21l.05-1-.09-1v-3h.82v6.29Z"/><path d="M309,213.49a3.67,3.67,0,0,1-1.06-.15,2.49,2.49,0,0,1-.8-.38l.34-.64a2.68,2.68,0,0,0,.72.33,2.82,2.82,0,0,0,.86.14,1.66,1.66,0,0,0,.82-.16.53.53,0,0,0,.25-.45.37.37,0,0,0-.16-.33,1,1,0,0,0-.4-.18l-.55-.11a6,6,0,0,1-.61-.12,2,2,0,0,1-.56-.2,1.1,1.1,0,0,1-.41-.36,1.18,1.18,0,0,1-.15-.63,1.1,1.1,0,0,1,.23-.71,1.46,1.46,0,0,1,.65-.47,2.7,2.7,0,0,1,1-.17,4,4,0,0,1,.9.11,2.2,2.2,0,0,1,.74.3l-.35.65a1.81,1.81,0,0,0-.64-.28,2.48,2.48,0,0,0-.66-.08,1.5,1.5,0,0,0-.79.17.53.53,0,0,0-.27.45.43.43,0,0,0,.16.35,1,1,0,0,0,.41.19c.16.05.35.08.55.12l.61.11a2.83,2.83,0,0,1,.56.2,1.16,1.16,0,0,1,.4.36,1,1,0,0,1,.16.61,1.06,1.06,0,0,1-.24.7,1.55,1.55,0,0,1-.67.47A2.86,2.86,0,0,1,309,213.49Z"/></g></svg>